# xmcd
#
# Track frame offsets:
#	150
#	15738
#	31047
#	46745
#	59648
#	74210
#	89836
#	102361
#	117863
#	131379
#	149497
#	167348
#	182770
#	199006
#
# Disc length: 2870 seconds
#
# Revision: 1
# Processed by: cddbd v1.5.2PL0 Copyright (c) Steve Scherf et al.
# Submitted via: audiograbber 1.83.01
#
DISCID=c80b340e
DTITLE=Mae, Lillie - Mae, Lillie
DYEAR=2009
DGENRE=Country
TTITLE0=If we only believed the lie
TTITLE1=Who I'm supposed to be
TTITLE2=Dance in the rain with me
TTITLE3=Love the hard way
TTITLE4=My heart made its mind up
TTITLE5=The love you tried to give
TTITLE6=I don't wanna play it safe
TTITLE7=Heaven knows
TTITLE8=You ain't thinkin' right
TTITLE9=Look what you've done to us
TTITLE10=Gone again
TTITLE11=Stop the pain before it starts
TTITLE12=I've had it with you
TTITLE13=Above the rain
EXTD=
EXTT0=
EXTT1=
EXTT2=
EXTT3=
EXTT4=
EXTT5=
EXTT6=
EXTT7=
EXTT8=
EXTT9=
EXTT10=
EXTT11=
EXTT12=
EXTT13=
PLAYORDER=
